<mxfile host="app.diagrams.net" modified="2023-03-27T20:39:59.977Z" agent="Mozilla/5.0 (Macintosh; Intel Mac OS X 10_15_7) AppleWebKit/537.36 (KHTML, like Gecko) Chrome/111.0.0.0 Safari/537.36" version="21.1.1" etag="F7JYqva2OPtl-x98cL5d" type="github">
  <diagram name="Page-1" id="9PTeH4Ft8eP-OcKtHAle">
    <mxGraphModel>
      <root>
        <mxCell id="0" />
        <mxCell id="1" parent="0" />
      </root>
    </mxGraphModel>
  </diagram>
</mxfile>
